Start = 10.000000, duration = 60, magnitude = 1000.000000, direction = 180
datacolumns 10
datarows 147
range 19.58000085 19.65000291
endheader
time	ground_force1_vx	ground_force1_vy	ground_force1_vz	ground_force1_px	ground_force1_py	ground_force1_pz	ground_torque1_x	ground_torque1_y	ground_torque1_z
19.58000085	-833.0453118	1.020186275e-13	0	0	0	0	0	0	0
19.5800017	-833.0444843	1.020185261e-13	0	0	0	0	0	0	0
19.58000594	-833.0403472	1.020180195e-13	0	0	0	0	0	0	0
19.58002714	-833.0196608	1.020154861e-13	0	0	0	0	0	0	0
19.58013315	-832.9162113	1.020028172e-13	0	0	0	0	0	0	0
19.5803537	-832.7009048	1.019764498e-13	0	0	0	0	0	0	0
19.58063396	-832.4271266	1.019429216e-13	0	0	0	0	0	0	0
19.58100739	-832.0620146	1.018982083e-13	0	0	0	0	0	0	0
19.58145807	-831.6208859	1.018441856e-13	0	0	0	0	0	0	0
19.58204115	-831.0493916	1.017741977e-13	0	0	0	0	0	0	0
19.58276511	-830.3385987	1.016871507e-13	0	0	0	0	0	0	0
19.58348906	-829.6264524	1.015999379e-13	0	0	0	0	0	0	0
19.58428434	-828.8425804	1.015039413e-13	0	0	0	0	0	0	0
19.58507963	-828.0570781	1.01407745e-13	0	0	0	0	0	0	0
19.58579014	-827.3539303	1.013216343e-13	0	0	0	0	0	0	0
19.58650065	-826.6494835	1.012353644e-13	0	0	0	0	0	0	0
19.58721115	-825.9437388	1.011489356e-13	0	0	0	0	0	0	0
19.58792166	-825.2366973	1.01062348e-13	0	0	0	0	0	0	0
19.58863217	-824.5283601	1.009756017e-13	0	0	0	0	0	0	0
19.58935592	-823.8054895	1.008870756e-13	0	0	0	0	0	0	0
19.59	-823.1610695	1.008081569e-13	0	0	0	0	0	0	0
19.59000047	-823.1605965	1.00808099e-13	0	0	0	0	0	0	0
19.59000094	-823.1601235	1.00808041e-13	0	0	0	0	0	0	0
19.59000331	-823.1577585	1.008077514e-13	0	0	0	0	0	0	0
19.59001512	-823.1459333	1.008063032e-13	0	0	0	0	0	0	0
19.59007416	-823.0868018	1.007990617e-13	0	0	0	0	0	0	0
19.59032849	-822.8319974	1.007678572e-13	0	0	0	0	0	0	0
19.59066067	-822.4989478	1.007270704e-13	0	0	0	0	0	0	0
19.59106393	-822.0942439	1.006775084e-13	0	0	0	0	0	0	0
19.59155389	-821.6019777	1.006172232e-13	0	0	0	0	0	0	0
19.59214607	-821.0061921	1.005442605e-13	0	0	0	0	0	0	0
19.59273825	-820.4095111	1.004711882e-13	0	0	0	0	0	0	0
19.59358161	-819.5581928	1.003669318e-13	0	0	0	0	0	0	0
19.59427602	-818.855878	1.00280923e-13	0	0	0	0	0	0	0
19.59497042	-818.1523352	1.001947639e-13	0	0	0	0	0	0	0
19.59566482	-817.4475654	1.001084544e-13	0	0	0	0	0	0	0
19.59635923	-816.7415697	1.000219949e-13	0	0	0	0	0	0	0
19.59705363	-816.0343492	9.993538537e-14	0	0	0	0	0	0	0
19.59774803	-815.3259048	9.984862596e-14	0	0	0	0	0	0	0
19.59821853	-814.8451992	9.978975651e-14	0	0	0	0	0	0	0
19.59876059	-814.2906794	9.972184741e-14	0	0	0	0	0	0	0
19.59930265	-813.7354154	9.965384719e-14	0	0	0	0	0	0	0
19.6	-813.0199937	9.956623329e-14	0	0	0	0	0	0	0
19.60000095	-813.019023	9.956611441e-14	0	0	0	0	0	0	0
19.60000189	-813.0180522	9.956599553e-14	0	0	0	0	0	0	0
19.60000662	-813.0131986	9.956540114e-14	0	0	0	0	0	0	0
19.60003025	-812.9889297	9.956242905e-14	0	0	0	0	0	0	0
19.60014842	-812.8675638	9.954756602e-14	0	0	0	0	0	0	0
19.60073928	-812.260205	9.947318602e-14	0	0	0	0	0	0	0
19.60153097	-811.4450307	9.937335596e-14	0	0	0	0	0	0	0
19.60223131	-810.7225856	9.928488194e-14	0	0	0	0	0	0	0
19.60293166	-809.9989037	9.919625647e-14	0	0	0	0	0	0	0
19.60363201	-809.2739862	9.910747968e-14	0	0	0	0	0	0	0
19.6042491	-808.6342183	9.902913071e-14	0	0	0	0	0	0	0
19.60486619	-807.9934927	9.895066445e-14	0	0	0	0	0	0	0
19.60548329	-807.3518101	9.8872081e-14	0	0	0	0	0	0	0
19.60610038	-806.7091714	9.879338046e-14	0	0	0	0	0	0	0
19.60650074	-806.2917281	9.87422584e-14	0	0	0	0	0	0	0
19.6069011	-805.8738828	9.869108711e-14	0	0	0	0	0	0	0
19.60768783	-805.0516225	9.859038926e-14	0	0	0	0	0	0	0
19.60847456	-804.2278125	9.848950163e-14	0	0	0	0	0	0	0
19.60917082	-803.4974473	9.84000577e-14	0	0	0	0	0	0	0
19.60986708	-802.7658708	9.831046541e-14	0	0	0	0	0	0	0
19.61	-802.6260656	9.829334421e-14	0	0	0	0	0	0	0
19.61000087	-802.6251478	9.829323181e-14	0	0	0	0	0	0	0
19.61000175	-802.62423	9.829311941e-14	0	0	0	0	0	0	0
19.61000611	-802.6196409	9.829255741e-14	0	0	0	0	0	0	0
19.61002792	-802.5966948	9.828974732e-14	0	0	0	0	0	0	0
19.61013698	-802.4819464	9.82756947e-14	0	0	0	0	0	0	0
19.61052155	-802.077092	9.822611434e-14	0	0	0	0	0	0	0
19.61113559	-801.4298992	9.814685608e-14	0	0	0	0	0	0	0
19.61188724	-800.6363804	9.804967806e-14	0	0	0	0	0	0	0
19.6126389	-799.8414548	9.795232774e-14	0	0	0	0	0	0	0
19.61329743	-799.1438494	9.786689572e-14	0	0	0	0	0	0	0
19.61395597	-798.4451661	9.77813317e-14	0	0	0	0	0	0	0
19.61461451	-797.7454059	9.769563579e-14	0	0	0	0	0	0	0
19.61527305	-797.0445698	9.760980811e-14	0	0	0	0	0	0	0
19.61593159	-796.3426586	9.752384878e-14	0	0	0	0	0	0	0
19.61659013	-795.6396733	9.743775792e-14	0	0	0	0	0	0	0
19.61705278	-795.1451596	9.737719745e-14	0	0	0	0	0	0	0
19.61751542	-794.6501166	9.731657217e-14	0	0	0	0	0	0	0
19.61797807	-794.1545445	9.72558821e-14	0	0	0	0	0	0	0
19.61881231	-793.2596002	9.714628302e-14	0	0	0	0	0	0	0
19.61931748	-792.7168316	9.707981304e-14	0	0	0	0	0	0	0
19.62	-791.9825178	9.698988554e-14	0	0	0	0	0	0	0
19.62000098	-791.9814677	9.698975694e-14	0	0	0	0	0	0	0
19.62000195	-791.9804175	9.698962833e-14	0	0	0	0	0	0	0
19.62000683	-791.9751669	9.698898531e-14	0	0	0	0	0	0	0
19.62003121	-791.9489127	9.69857701e-14	0	0	0	0	0	0	0
19.62015312	-791.8176197	9.696969135e-14	0	0	0	0	0	0	0
19.62075138	-791.1727967	9.689072331e-14	0	0	0	0	0	0	0
19.62134963	-790.5270931	9.681164742e-14	0	0	0	0	0	0	0
19.62217233	-789.637712	9.670272965e-14	0	0	0	0	0	0	0
19.62268127	-789.0866857	9.663524839e-14	0	0	0	0	0	0	0
19.62319021	-788.5350237	9.656768928e-14	0	0	0	0	0	0	0
19.62384665	-787.8225421	9.648043545e-14	0	0	0	0	0	0	0
19.62450309	-787.1090046	9.639305231e-14	0	0	0	0	0	0	0
19.62515953	-786.3944122	9.630553998e-14	0	0	0	0	0	0	0
19.62581597	-785.6787659	9.621789859e-14	0	0	0	0	0	0	0
19.62633231	-785.1151075	9.614887033e-14	0	0	0	0	0	0	0
19.62684866	-784.550798	9.607976235e-14	0	0	0	0	0	0	0
19.6274878	-783.8513952	9.599411022e-14	0	0	0	0	0	0	0
19.62822159	-783.047185	9.589562287e-14	0	0	0	0	0	0	0
19.62895538	-782.2416635	9.579697493e-14	0	0	0	0	0	0	0
19.62968916	-781.4348319	9.569816657e-14	0	0	0	0	0	0	0
19.63	-781.0926605	9.565626265e-14	0	0	0	0	0	0	0
19.63000178	-781.0906954	9.5656022e-14	0	0	0	0	0	0	0
19.63000357	-781.0887303	9.565578135e-14	0	0	0	0	0	0	0
19.63001249	-781.0789048	9.565457806e-14	0	0	0	0	0	0	0
19.6300571	-781.0297741	9.564856129e-14	0	0	0	0	0	0	0
19.63028017	-780.7840484	9.561846857e-14	0	0	0	0	0	0	0
19.63104448	-779.9411647	9.551524508e-14	0	0	0	0	0	0	0
19.6318088	-779.0968638	9.541184805e-14	0	0	0	0	0	0	0
19.63246708	-778.3685559	9.532265606e-14	0	0	0	0	0	0	0
19.63312536	-777.639199	9.523333559e-14	0	0	0	0	0	0	0
19.63378365	-776.908794	9.514388678e-14	0	0	0	0	0	0	0
19.63444193	-776.177342	9.505430974e-14	0	0	0	0	0	0	0
19.63510021	-775.4448438	9.496460459e-14	0	0	0	0	0	0	0
19.6357585	-774.7113006	9.487477146e-14	0	0	0	0	0	0	0
19.63641678	-773.9767133	9.478481046e-14	0	0	0	0	0	0	0
19.63695407	-773.376364	9.471128887e-14	0	0	0	0	0	0	0
19.63749137	-772.7753203	9.463768224e-14	0	0	0	0	0	0	0
19.63834098	-771.8234943	9.452111718e-14	0	0	0	0	0	0	0
19.63910384	-770.9673704	9.441627224e-14	0	0	0	0	0	0	0
19.63986671	-770.1098511	9.431125642e-14	0	0	0	0	0	0	0
19.64	-769.9598805	9.429289031e-14	0	0	0	0	0	0	0
19.64000284	-769.9566843	9.429249889e-14	0	0	0	0	0	0	0
19.64000568	-769.953488	9.429210746e-14	0	0	0	0	0	0	0
19.64001988	-769.9375066	9.42901503e-14	0	0	0	0	0	0	0
19.64009089	-769.8575922	9.42803636e-14	0	0	0	0	0	0	0
19.64044592	-769.4578389	9.423140795e-14	0	0	0	0	0	0	0
19.64109758	-768.723323	9.414145569e-14	0	0	0	0	0	0	0
19.64174923	-767.9877918	9.40513791e-14	0	0	0	0	0	0	0
19.64240089	-767.2512463	9.396117829e-14	0	0	0	0	0	0	0
19.64298419	-766.5910956	9.388033315e-14	0	0	0	0	0	0	0
19.64356749	-765.9301337	9.379938866e-14	0	0	0	0	0	0	0
19.64440838	-764.9758747	9.368252564e-14	0	0	0	0	0	0	0
19.64524926	-764.0199334	9.356545659e-14	0	0	0	0	0	0	0
19.64609014	-763.062312	9.344818179e-14	0	0	0	0	0	0	0
19.64693102	-762.1030124	9.333070148e-14	0	0	0	0	0	0	0
19.64760246	-761.3358172	9.323674716e-14	0	0	0	0	0	0	0
19.6482739	-760.5675545	9.314266212e-14	0	0	0	0	0	0	0
19.64894533	-759.7982254	9.304844647e-14	0	0	0	0	0	0	0
19.64961677	-759.027831	9.295410036e-14	0	0	0	0	0	0	0
19.65	-758.5876401	9.290019253e-14	0	0	0	0	0	0	0
19.65000146	-758.5859654	9.289998744e-14	0	0	0	0	0	0	0
19.65000291	-758.5842908	9.289978236e-14	0	0	0	0	0	0	0
